<svg xmlns="http://www.w3.org/2000/svg" viewBox="0 0 400 300" width="406" height="306" class="illustration styles_illustrationTablet__1DWOa"><g id="_253_sun_outline" data-name="#253_sun_outline"><path d="M293.1,150c0,.93,0,1.86,0,2.78-.09,3.05-.33,6.06-.7,9a92.79,92.79,0,0,1-27,54.45c-1.69,1.68-3.45,3.28-5.27,4.82a94.43,94.43,0,0,1-7.83,6,92.64,92.64,0,0,1-52.27,16,93.7,93.7,0,0,1-21.86-2.58,91.44,91.44,0,0,1-13.45-4.36q-2.66-1.08-5.22-2.32a93.36,93.36,0,0,1-46.39-50.46c-.33-.85-.65-1.71-1-2.58q-.28-.78-.54-1.56c-.69-2.1-1.32-4.23-1.86-6.4A93.1,93.1,0,1,1,293,146.78c0,.35,0,.69,0,1C293.09,148.53,293.1,149.27,293.1,150Z" fill="#f5fc68"></path><path d="M200,244.1a94.65,94.65,0,0,1-22.09-2.61,91,91,0,0,1-13.6-4.41c-1.76-.71-3.53-1.5-5.27-2.34a93.84,93.84,0,0,1-46.89-51q-.51-1.29-1-2.61c-.19-.52-.37-1-.55-1.58-.73-2.23-1.35-4.34-1.88-6.46A94.1,94.1,0,1,1,294,146.75c0,.33,0,.69,0,1,0,.72,0,1.47,0,2.21,0,.94,0,1.87,0,2.8-.09,3.06-.33,6.13-.71,9.14a94.32,94.32,0,0,1-27.27,55c-1.69,1.67-3.49,3.31-5.34,4.88a95.09,95.09,0,0,1-7.91,6A93.54,93.54,0,0,1,200,244.1Zm0-186.2a92.16,92.16,0,0,0-89.3,114.7c.52,2.07,1.12,4.14,1.84,6.33.17.51.35,1,.53,1.53.3.86.62,1.72.94,2.56a91.86,91.86,0,0,0,45.9,49.92c1.7.83,3.44,1.6,5.15,2.29a89,89,0,0,0,13.31,4.31,92.28,92.28,0,0,0,73.34-13.32,95,95,0,0,0,7.74-5.89c1.81-1.53,3.57-3.13,5.22-4.77a92.33,92.33,0,0,0,26.7-53.87c.37-2.94.6-5.95.69-8.94,0-.91,0-1.83,0-2.75q0-1.08,0-2.16c0-.34,0-.68,0-1A92.08,92.08,0,0,0,200,57.9Z" fill="#093f68"></path><circle cx="200.33" cy="134.64" r="39.69" fill="#ffbc0e"></circle><path d="M200.33,175.33A40.69,40.69,0,1,1,241,134.64,40.73,40.73,0,0,1,200.33,175.33Zm0-79.38A38.69,38.69,0,1,0,239,134.64,38.73,38.73,0,0,0,200.33,96Z" fill="#093f68"></path><path d="M200.33,197.43a1,1,0,0,1-1-1V180.85a1,1,0,0,1,2,0v15.58A1,1,0,0,1,200.33,197.43Z" fill="#093f68"></path><path d="M200.33,86.82a1,1,0,0,1-1-1V70.24a1,1,0,1,1,2,0V85.82A1,1,0,0,1,200.33,86.82Z" fill="#093f68"></path><path d="M155.71,179a1,1,0,0,1-.71-.3,1,1,0,0,1,0-1.41l11-11a1,1,0,0,1,1.42,1.42l-11,11A1,1,0,0,1,155.71,179Z" fill="#093f68"></path><path d="M233.92,100.74a1,1,0,0,1-.7-.3,1,1,0,0,1,0-1.41l11-11a1,1,0,1,1,1.42,1.42l-11,11A1,1,0,0,1,233.92,100.74Z" fill="#093f68"></path><path d="M152.81,134.33H137.23a1,1,0,0,1,0-2h15.58a1,1,0,0,1,0,2Z" fill="#093f68"></path><path d="M263.42,134.33H247.84a1,1,0,0,1,0-2h15.58a1,1,0,0,1,0,2Z" fill="#093f68"></path><path d="M166.73,100.74a1,1,0,0,1-.71-.3l-11-11A1,1,0,1,1,156.42,88l11,11a1,1,0,0,1,0,1.41A1,1,0,0,1,166.73,100.74Z" fill="#093f68"></path><path d="M244.94,179a1,1,0,0,1-.71-.3l-11-11a1,1,0,0,1,0-1.42,1,1,0,0,1,1.41,0l11,11a1,1,0,0,1-.71,1.71Z" fill="#093f68"></path><circle cx="185.61" cy="123.69" r="2.94" fill="#093f68"></circle><path d="M185.61,127.63a3.94,3.94,0,1,1,3.94-3.94A3.95,3.95,0,0,1,185.61,127.63Zm0-5.88a1.94,1.94,0,1,0,1.94,1.94A1.94,1.94,0,0,0,185.61,121.75Z" fill="#093f68"></path><circle cx="215.04" cy="123.69" r="2.94" fill="#093f68"></circle><path d="M215,127.63a3.94,3.94,0,1,1,3.94-3.94A3.95,3.95,0,0,1,215,127.63Zm0-5.88a1.94,1.94,0,1,0,1.94,1.94A1.94,1.94,0,0,0,215,121.75Z" fill="#093f68"></path><path d="M201,145.85a13.22,13.22,0,0,1-3.48-.42,1,1,0,1,1,.56-1.92,13.31,13.31,0,0,0,8-.68.92.92,0,0,0,.58-.68c.69-2.45-3.1-8.94-5.65-12.45a1,1,0,0,1,1.62-1.17c.73,1,7.13,10,6,14.16a2.94,2.94,0,0,1-1.74,2A15.34,15.34,0,0,1,201,145.85Z" fill="#093f68"></path><path d="M203.27,155c-10.14,0-18.18-6.78-18.3-6.88a1,1,0,0,1,1.3-1.52,31,31,0,0,0,9.89,5.3,20.64,20.64,0,0,0,20.69-4.15,1,1,0,1,1,1.3,1.52A22.47,22.47,0,0,1,203.27,155Z" fill="#093f68"></path><path d="M211.9,234.88c-7.62,2.08-50.72-.21-52.43-1a93.36,93.36,0,0,1-46.39-50.46c6.71-3.78,15-4.91,22.08-1.85,8,3.47,13.36,12.91,10.94,21.28,1.94-5.32,8.49-7.35,14.14-7.23s11.15,1.67,15.36,5.23,6.74,9.33,5.59,14.72C193.75,214.61,218,233.22,211.9,234.88Z" fill="#fff"></path><path d="M197.16,236.73c-15.41,0-36.54-1.22-38.12-2a93.84,93.84,0,0,1-46.89-51,1,1,0,0,1,.44-1.23c7.45-4.2,16-4.91,23-1.9a20.29,20.29,0,0,1,12.12,18c3.24-3.07,8.38-4.17,12.58-4.08,6.3.13,12,2.08,16,5.47a16.8,16.8,0,0,1,6.12,14.45c11.3.24,30.52,13.41,31.45,18.84a2.11,2.11,0,0,1-1.66,2.51C209.81,236.49,204.06,236.73,197.16,236.73Zm14.74-1.85h0Zm-97.57-51a91.84,91.84,0,0,0,45.58,49.1c2.58.84,44.5,2.95,51.73,1a.62.62,0,0,0,.23-.1h0s.09-.55-1.12-2c-4.41-5.48-20.26-15.92-29.49-15.24a1.08,1.08,0,0,1-.83-.34,1,1,0,0,1-.22-.87c1-4.71-1.1-10.23-5.26-13.74-3.65-3.1-8.89-4.87-14.73-5-4.95-.11-11.35,1.55-13.18,6.57a1,1,0,0,1-1.9-.62c2.2-7.63-2.45-16.64-10.38-20.09C128.64,179.78,121.06,180.31,114.33,183.84Z" fill="#093f68"></path><path d="M170.17,215s13.09-3.52,17.65,12.16" fill="#fff"></path><path d="M187.82,228.11a1,1,0,0,1-1-.72c-4.22-14.52-15.94-11.6-16.44-11.47a1,1,0,1,1-.51-1.93c.14,0,14.09-3.59,18.87,12.84a1,1,0,0,1-.68,1.24A.9.9,0,0,1,187.82,228.11Z" fill="#093f68"></path><path d="M292.36,161.82a92.79,92.79,0,0,1-27,54.45c-1.69,1.68-3.45,3.28-5.27,4.82q-26.25-.14-52.48-.6a23.15,23.15,0,0,1,23.17-13.79,17.57,17.57,0,0,1,27-13.93,29.46,29.46,0,0,1,9.63-23.05C273.1,164.64,283.26,161.33,292.36,161.82Z" fill="#fff"></path><path d="M260.1,222.09h0c-17.2-.09-34.86-.29-52.48-.6a1,1,0,0,1-.82-.45,1,1,0,0,1-.09-.93,24.31,24.31,0,0,1,23.18-14.49A18.55,18.55,0,0,1,256.79,191a30.39,30.39,0,0,1,10-22.06c5.88-5.29,16.44-8.65,25.62-8.15a.94.94,0,0,1,.71.36,1,1,0,0,1,.23.76,94.32,94.32,0,0,1-27.27,55c-1.69,1.67-3.49,3.31-5.34,4.88A1,1,0,0,1,260.1,222.09Zm-50.93-2.57c17,.29,34,.48,50.56.57,1.72-1.46,3.37-3,4.94-4.53a92.33,92.33,0,0,0,26.55-52.78c-8.43-.16-17.8,2.92-23.09,7.68a28.68,28.68,0,0,0-9.31,22.26,1,1,0,0,1-1.53.9,16.57,16.57,0,0,0-25.5,13.13,1,1,0,0,1-.35.71,1,1,0,0,1-.75.24A22.24,22.24,0,0,0,209.17,219.52Z" fill="#093f68"></path><path d="M243.11,206.19a11.29,11.29,0,0,1,5.75-3.42,7.17,7.17,0,0,1,6.33,1.63,13.68,13.68,0,0,1,17.46-15.09" fill="#fff"></path><path d="M243.11,207.19a1,1,0,0,1-.73-1.69,12.25,12.25,0,0,1,6.28-3.71,8.6,8.6,0,0,1,5.4.63,14.66,14.66,0,0,1,18.88-14.07,1,1,0,0,1-.57,1.91,12.69,12.69,0,0,0-16.19,14,1,1,0,0,1-1.69.86,6.11,6.11,0,0,0-5.43-1.37,10.38,10.38,0,0,0-5.23,3.13A1,1,0,0,1,243.11,207.19Z" fill="#093f68"></path><path d="M134.31,200.92c3-.19,6.21.1,8.8,1.69s4.39,4.72,3.69,7.67" fill="#fff"></path><path d="M146.8,211.28a1,1,0,0,1-.24,0,1,1,0,0,1-.74-1.21c.63-2.63-1.15-5.31-3.23-6.59s-4.74-1.76-8.21-1.54a1,1,0,1,1-.13-2c3.9-.25,7,.36,9.38,1.84,3.2,2,4.9,5.56,4.14,8.76A1,1,0,0,1,146.8,211.28Z" fill="#093f68"></path></g></svg>